<svg width="204" height="66" viewBox="0 0 204 66" fill="none" xmlns="http://www.w3.org/2000/svg">
<g clip-path="url(#clip0_1_32)">
<path d="M71.2823 30.481V3.07761H80.2444C81.6966 3.00439 83.1449 3.29985 84.4807 3.94187C85.5451 4.47828 86.4496 5.34531 87.0871 6.44008C87.7245 7.53485 88.068 8.81137 88.0768 10.1182C88.1227 11.2872 87.8709 12.4468 87.3509 13.4619C86.8309 14.477 86.0641 15.3058 85.1397 15.8518C86.4615 16.0852 87.6578 16.8632 88.4938 18.0332C89.3298 19.2031 89.7451 20.6806 89.6583 22.1757C89.6619 23.9469 89.1298 25.6673 88.1486 27.0568C87.1674 28.4462 85.795 29.4228 84.2548 29.8275C82.7338 30.2866 81.1596 30.4856 79.5854 30.4178H71.2823M82.259 7.75727C81.5341 7.41178 80.749 7.25328 79.962 7.29351H75.4621V14.4395H79.6796C80.6296 14.5034 81.5779 14.2852 82.4284 13.8071C82.8874 13.4772 83.2618 13.0194 83.5149 12.4785C83.768 11.9377 83.8911 11.3324 83.8721 10.7222C83.8531 10.112 83.6927 9.51777 83.4066 8.99795C83.1205 8.47814 82.7185 8.05058 82.2402 7.75727M83.5393 19.077C82.6488 18.7109 81.6991 18.56 80.7528 18.6343H75.4621V26.244H80.4704C81.5352 26.297 82.597 26.0809 83.5769 25.6116C84.1434 25.3102 84.6164 24.8259 84.9352 24.2212C85.2539 23.6164 85.4038 22.9187 85.3656 22.2178C85.3653 21.5632 85.1916 20.9235 84.8665 20.3794C84.5414 19.8354 84.0796 19.4114 83.5393 19.1613V19.077Z" fill="white"/>
<path d="M118.277 3.11977H114.097V30.4599H118.277V3.11977Z" fill="white"/>
<path d="M148.702 3.11977H144.523V30.4599H148.702V3.11977Z" fill="white"/>
<path d="M162.221 2.88789C164.551 2.86507 166.86 3.38928 168.999 4.4267V8.91664C166.894 7.68447 164.558 7.02717 162.183 6.9984C159.886 6.9984 157.928 7.79942 157.928 9.94953C157.928 15.5567 170.505 13.3012 170.505 22.5972C170.505 27.6985 166.74 31.0291 161.091 31.0291C158.185 31.1036 155.32 30.2559 152.826 28.5838L154.558 24.7684C156.566 26.1403 158.871 26.8694 161.223 26.8764C163.746 26.8764 166.081 25.8013 166.081 23.314C166.081 17.4538 153.635 20.0255 153.635 10.6662C153.522 5.62823 157.081 2.88789 162.221 2.88789Z" fill="white"/>
<path d="M190.256 30.481V18.6975H178.394V30.481H174.214V3.11977H178.394V14.3341H190.256V3.11977H194.454V30.481H190.256Z" fill="white"/>
<path d="M80.5268 35.2871C82.8656 35.259 85.1808 35.8134 87.3048 36.9102L86.0433 40.8943C84.4678 39.9987 82.7267 39.5294 80.9598 39.5241C76.3281 39.5241 73.4286 43.9297 73.4286 49.2629C73.4286 54.596 76.1399 59.0648 80.9598 59.0648C82.7275 59.0675 84.4703 58.5977 86.0433 57.6947L87.3048 61.6787C85.1788 62.7663 82.864 63.3134 80.5268 63.2807C73.2215 63.2807 69.0417 57.5682 69.0417 49.3472C69.0417 41.6953 73.2215 35.2871 80.5268 35.2871Z" fill="white"/>
<path d="M172.181 35.2871C174.52 35.2576 176.835 35.8121 178.959 36.9103L177.697 40.8943C176.122 39.9988 174.381 39.5295 172.614 39.5241C167.982 39.5241 165.083 43.9297 165.083 49.2629C165.083 54.596 167.794 59.0648 172.614 59.0648C174.382 59.0675 176.124 58.5977 177.697 57.6947L178.959 61.6787C176.833 62.7676 174.518 63.3148 172.181 63.2807C164.876 63.2807 160.677 57.5682 160.677 49.3472C160.677 41.6953 164.876 35.2871 172.181 35.2871Z" fill="white"/>
<path d="M111.254 49.1996C111.254 57.4206 106.585 63.3018 99.6936 63.3018C92.8026 63.3018 88.1333 57.6104 88.1333 49.4104C88.1333 41.2105 92.8026 35.3082 99.6936 35.3082C106.585 35.3082 111.254 40.9997 111.254 49.1996ZM106.848 49.1996C106.848 43.2341 103.817 39.4187 99.6936 39.4187C95.5703 39.4187 92.5578 43.2974 92.5578 49.3261C92.5578 55.3548 95.608 59.1281 99.7124 59.1281C103.817 59.1281 106.829 55.2916 106.829 49.2839L106.848 49.1996Z" fill="white"/>
<path d="M114.078 52.5934V35.5401H118.277V52.7621C118.277 57.3152 120.461 59.0859 123.925 59.0859C127.389 59.0859 129.573 57.3785 129.573 52.7621V35.5401H133.753V52.5934C133.753 60.0345 129.988 63.3018 123.812 63.3018C117.637 63.3018 114.078 60.0345 114.078 52.5934Z" fill="white"/>
<path d="M141.68 42.9812C141.68 43.8876 141.793 45.3421 141.793 46.6279V62.9013H137.519V35.4979H142.037L153.334 54.1322C153.334 53.2258 153.221 51.7713 153.221 50.4855V35.519H157.401V62.9224H153.635L141.68 42.9812Z" fill="white"/>
<path d="M186.434 35.5401H182.254V62.8802H186.434V35.5401Z" fill="white"/>
<path d="M190.256 62.8802V35.5401H194.454V58.6432H204V62.8802H190.256Z" fill="white"/>
<path d="M141.322 3.14085H121.496V7.39892H129.31V30.481H133.49V7.39892H141.322V3.14085Z" fill="white"/>
<path d="M106.566 30.481C103.007 22.2178 102.085 19.9412 100.597 19.9412H96.7188V30.481H92.5579V3.07761H100.823C107.131 3.07761 109.522 6.80868 109.522 10.9613C109.584 12.53 109.172 14.0762 108.352 15.35C107.532 16.6238 106.352 17.5507 105.003 17.9808C106.114 18.6765 107.3 21.2692 111.386 30.3967L106.566 30.481ZM101.049 7.29351H96.7188V15.5988H100.861C103.873 15.5988 105.267 13.8492 105.267 11.3829C105.267 8.91664 103.968 7.37783 101.049 7.37783V7.29351Z" fill="white"/>
<path d="M44.9798 31.282C52.6954 31.282 58.9501 24.2793 58.9501 15.641C58.9501 7.00272 52.6954 0 44.9798 0C37.2642 0 31.0095 7.00272 31.0095 15.641C31.0095 24.2793 37.2642 31.282 44.9798 31.282Z" fill="white"/>
<path d="M13.9703 31.282C21.6859 31.282 27.9406 24.2793 27.9406 15.641C27.9406 7.00272 21.6859 0 13.9703 0C6.25471 0 0 7.00272 0 15.641C0 24.2793 6.25471 31.282 13.9703 31.282Z" fill="white"/>
<path d="M44.9798 66C52.6954 66 58.9501 58.9973 58.9501 50.359C58.9501 41.7207 52.6954 34.718 44.9798 34.718C37.2642 34.718 31.0095 41.7207 31.0095 50.359C31.0095 58.9973 37.2642 66 44.9798 66Z" fill="white"/>
<path d="M13.9703 66C21.6859 66 27.9406 58.9973 27.9406 50.359C27.9406 41.7207 21.6859 34.718 13.9703 34.718C6.25471 34.718 0 41.7207 0 50.359C0 58.9973 6.25471 66 13.9703 66Z" fill="white"/>
</g>
<defs>
<clipPath id="clip0_1_32">
<rect width="204" height="66" fill="white"/>
</clipPath>
</defs>
</svg>
