<svg width="424" height="126" viewBox="0 0 424 126" fill="none" xmlns="http://www.w3.org/2000/svg">
<path fill-rule="evenodd" clip-rule="evenodd" d="M0 3.29535H15.0766H30.1532V62.5281V121.761H15.0766H0V62.5281V3.29535Z" fill="#DD052B"/>
<path fill-rule="evenodd" clip-rule="evenodd" d="M0 3.29535H15.0766H30.1532V62.5281V121.761H15.0766H0V62.5281V3.29535Z" fill="#DD052B"/>
<path fill-rule="evenodd" clip-rule="evenodd" d="M42.5836 3.29535H133.699V27.5147H72.7368V49.2634H133.534V72.9916H72.7368V97.5379H134.026V121.761H42.5836V3.29535Z" fill="#DD052B"/>
<path fill-rule="evenodd" clip-rule="evenodd" d="M42.5836 3.29535H133.699V27.5147H72.7368V49.2634H133.534V72.9916H72.7368V97.5379H134.026V121.761H42.5836V3.29535Z" fill="#DD052B"/>
<path fill-rule="evenodd" clip-rule="evenodd" d="M145.339 3.29535H175.658V96.0551H231.046V121.761H145.339V3.29535Z" fill="#DD052B"/>
<path fill-rule="evenodd" clip-rule="evenodd" d="M145.339 3.29535H175.658V96.0551H231.046V121.761H145.339V3.29535Z" fill="#DD052B"/>
<path fill-rule="evenodd" clip-rule="evenodd" d="M242.364 27.3486H208.602V3.29535H306.44V27.3486H272.512V121.761H242.364V27.3486Z" fill="#DD052B"/>
<path fill-rule="evenodd" clip-rule="evenodd" d="M242.364 27.3486H208.602V3.29535H306.44V27.3486H272.512V121.761H242.364V27.3486Z" fill="#DD052B"/>
<path fill-rule="evenodd" clip-rule="evenodd" d="M336.679 82.3821C337.004 95.8933 344.545 102.816 358.966 102.816C371.583 102.816 378.3 98.364 378.3 91.1163C378.3 87.161 376.5 84.1917 373.714 82.709C366.668 79.086 353.23 76.7815 336.021 69.857C318.976 63.1041 310.131 51.7349 310.131 37.0714C310.131 14.8297 327.665 0 357.166 0C385.839 0 403.375 15.487 403.375 39.0472H375.027C373.714 28.0104 367.322 22.901 355.195 22.901C345.033 22.901 338.809 27.6798 338.809 33.611C338.809 42.5095 347.988 44.321 366.507 50.4183C380.105 54.8648 389.942 57.9947 395.674 62.6092C403.375 68.869 407.309 77.437 407.309 87.654C407.309 110.717 389.119 125.058 356.013 125.058C325.373 125.058 309.473 111.05 307.673 82.3821H336.679Z" fill="#DD052B"/>
<path fill-rule="evenodd" clip-rule="evenodd" d="M336.679 82.3821C337.004 95.8933 344.545 102.816 358.966 102.816C371.583 102.816 378.3 98.364 378.3 91.1163C378.3 87.161 376.5 84.1917 373.714 82.709C366.668 79.086 353.23 76.7815 336.021 69.857C318.976 63.1041 310.131 51.7349 310.131 37.0714C310.131 14.8297 327.665 0 357.166 0C385.839 0 403.375 15.487 403.375 39.0472H375.027C373.714 28.0104 367.322 22.901 355.195 22.901C345.033 22.901 338.809 27.6798 338.809 33.611C338.809 42.5095 347.988 44.321 366.507 50.4183C380.105 54.8648 389.942 57.9947 395.674 62.6092C403.375 68.869 407.309 77.437 407.309 87.654C407.309 110.717 389.119 125.058 356.013 125.058C325.373 125.058 309.473 111.05 307.673 82.3821H336.679Z" fill="#DD052B"/>
<path fill-rule="evenodd" clip-rule="evenodd" d="M401.876 5.36977H397.945V2.99768H408.512V5.36977H404.604V16.3245H401.876V5.36977Z" fill="#DD052B"/>
<path fill-rule="evenodd" clip-rule="evenodd" d="M401.876 5.36977H397.945V2.99768H408.512V5.36977H404.604V16.3245H401.876V5.36977Z" fill="#DD052B"/>
<path fill-rule="evenodd" clip-rule="evenodd" d="M410.263 2.99768H414.301L416.936 13.1361L419.531 2.99768H423.591V16.3263H421.028V5.57429L418.336 16.3263H415.55L412.826 5.57429V16.3263H410.263V2.99768Z" fill="#DD052B"/>
<path fill-rule="evenodd" clip-rule="evenodd" d="M410.263 2.99768H414.301L416.936 13.1361L419.531 2.99768H423.591V16.3263H421.028V5.57429L418.336 16.3263H415.55L412.826 5.57429V16.3263H410.263V2.99768Z" fill="#DD052B"/>
</svg>
