<svg version="1.1" xmlns="http://www.w3.org/2000/svg" xmlns:xlink="http://www.w3.org/1999/xlink" width="424" height="126" viewBox="0,0,256,76.0625"><g fill="#23085a" fill-rule="evenodd" stroke="none" stroke-width="1" stroke-linecap="butt" stroke-linejoin="miter" stroke-miterlimit="10" stroke-dasharray="" stroke-dashoffset="0" font-family="none" font-weight="none" font-size="none" text-anchor="none" style="mix-blend-mode: normal"><g transform="translate(0.12347,-0.12258) scale(0.60377,0.60377)"><path d="M0,3.95892h15.0766h15.0766v59.23278v59.2323h-15.0766h-15.0766v-59.2323z"></path><path d="M0,3.95892h15.0766h15.0766v59.23278v59.2323h-15.0766h-15.0766v-59.2323z"></path><path d="M42.5836,3.95892h91.1154v24.21938h-60.9622v21.7487h60.7972v23.7282h-60.7972v24.5462h61.2892v24.2226h-91.4424z"></path><path d="M42.5836,3.95892h91.1154v24.21938h-60.9622v21.7487h60.7972v23.7282h-60.7972v24.5462h61.2892v24.2226h-91.4424z"></path><path d="M145.339,3.95892h30.319v92.75978h55.388v25.7053h-85.707z"></path><path d="M145.339,3.95892h30.319v92.75978h55.388v25.7053h-85.707z"></path><path d="M242.364,28.0121h-33.762v-24.05318h97.838v24.05318h-33.928v94.4119h-30.148z"></path><path d="M242.364,28.0121h-33.762v-24.05318h97.838v24.05318h-33.928v94.4119h-30.148z"></path><path d="M336.679,83.0457c0.325,13.5112 7.866,20.4343 22.287,20.4343c12.617,0 19.334,-4.4524 19.334,-11.7002c0,-3.9553 -1.8,-6.9245 -4.586,-8.4073c-7.046,-3.6229 -20.484,-5.9274 -37.693,-12.852c-17.045,-6.7528 -25.89,-18.1221 -25.89,-32.7855c0,-22.2418 17.534,-37.07143 47.035,-37.07143c28.673,0 46.209,15.48703 46.209,39.04723h-28.348c-1.313,-11.0369 -7.705,-16.1463 -19.832,-16.1463c-10.162,0 -16.386,4.7789 -16.386,10.71c0,8.8986 9.179,10.71 27.698,16.8073c13.598,4.4466 23.435,7.5765 29.167,12.191c7.701,6.2598 11.635,14.8278 11.635,25.0448c0,23.0634 -18.19,37.4034 -51.296,37.4034c-30.64,0 -46.54,-14.008 -48.34,-42.6753z"></path><path d="M336.679,83.0457c0.325,13.5112 7.866,20.4343 22.287,20.4343c12.617,0 19.334,-4.4524 19.334,-11.7002c0,-3.9553 -1.8,-6.9245 -4.586,-8.4073c-7.046,-3.6229 -20.484,-5.9274 -37.693,-12.852c-17.045,-6.7528 -25.89,-18.1221 -25.89,-32.7855c0,-22.2418 17.534,-37.07143 47.035,-37.07143c28.673,0 46.209,15.48703 46.209,39.04723h-28.348c-1.313,-11.0369 -7.705,-16.1463 -19.832,-16.1463c-10.162,0 -16.386,4.7789 -16.386,10.71c0,8.8986 9.179,10.71 27.698,16.8073c13.598,4.4466 23.435,7.5765 29.167,12.191c7.701,6.2598 11.635,14.8278 11.635,25.0448c0,23.0634 -18.19,37.4034 -51.296,37.4034c-30.64,0 -46.54,-14.008 -48.34,-42.6753z"></path><path d="M401.876,6.03334h-3.931v-2.37209h10.567v2.37209h-3.908v10.95466h-2.728z"></path><path d="M401.876,6.03334h-3.931v-2.37209h10.567v2.37209h-3.908v10.95466h-2.728z"></path><path d="M410.263,3.66125h4.038l2.635,10.13845l2.595,-10.13845h4.06v13.32865h-2.563v-10.75204l-2.692,10.75204h-2.786l-2.724,-10.75204v10.75204h-2.563z"></path><path d="M410.263,3.66125h4.038l2.635,10.13845l2.595,-10.13845h4.06v13.32865h-2.563v-10.75204l-2.692,10.75204h-2.786l-2.724,-10.75204v10.75204h-2.563z"></path></g></g></svg>