<svg width="424" height="126" viewBox="0 0 424 126" fill="none" xmlns="http://www.w3.org/2000/svg">
<path fill-rule="evenodd" clip-rule="evenodd" d="M0 3.95892H15.0766H30.1532V63.1917V122.424H15.0766H0V63.1917V3.95892Z" fill="white"/>
<path fill-rule="evenodd" clip-rule="evenodd" d="M0 3.95892H15.0766H30.1532V63.1917V122.424H15.0766H0V63.1917V3.95892Z" fill="white"/>
<path fill-rule="evenodd" clip-rule="evenodd" d="M42.5836 3.95892H133.699V28.1783H72.7368V49.927H133.534V73.6552H72.7368V98.2014H134.026V122.424H42.5836V3.95892Z" fill="white"/>
<path fill-rule="evenodd" clip-rule="evenodd" d="M42.5836 3.95892H133.699V28.1783H72.7368V49.927H133.534V73.6552H72.7368V98.2014H134.026V122.424H42.5836V3.95892Z" fill="white"/>
<path fill-rule="evenodd" clip-rule="evenodd" d="M145.339 3.95892H175.658V96.7187H231.046V122.424H145.339V3.95892Z" fill="white"/>
<path fill-rule="evenodd" clip-rule="evenodd" d="M145.339 3.95892H175.658V96.7187H231.046V122.424H145.339V3.95892Z" fill="white"/>
<path fill-rule="evenodd" clip-rule="evenodd" d="M242.364 28.0121H208.602V3.95892H306.44V28.0121H272.512V122.424H242.364V28.0121Z" fill="white"/>
<path fill-rule="evenodd" clip-rule="evenodd" d="M242.364 28.0121H208.602V3.95892H306.44V28.0121H272.512V122.424H242.364V28.0121Z" fill="white"/>
<path fill-rule="evenodd" clip-rule="evenodd" d="M336.679 83.0457C337.004 96.5569 344.545 103.48 358.966 103.48C371.583 103.48 378.3 99.0276 378.3 91.7798C378.3 87.8245 376.5 84.8553 373.714 83.3725C366.668 79.7496 353.23 77.4451 336.021 70.5205C318.976 63.7677 310.131 52.3984 310.131 37.735C310.131 15.4932 327.665 0.663574 357.166 0.663574C385.839 0.663574 403.375 16.1506 403.375 39.7108H375.027C373.714 28.6739 367.322 23.5645 355.195 23.5645C345.033 23.5645 338.809 28.3434 338.809 34.2745C338.809 43.1731 347.988 44.9845 366.507 51.0818C380.105 55.5284 389.942 58.6583 395.674 63.2728C403.375 69.5326 407.309 78.1006 407.309 88.3176C407.309 111.381 389.119 125.721 356.013 125.721C325.373 125.721 309.473 111.713 307.673 83.0457H336.679Z" fill="white"/>
<path fill-rule="evenodd" clip-rule="evenodd" d="M336.679 83.0457C337.004 96.5569 344.545 103.48 358.966 103.48C371.583 103.48 378.3 99.0276 378.3 91.7798C378.3 87.8245 376.5 84.8553 373.714 83.3725C366.668 79.7496 353.23 77.4451 336.021 70.5205C318.976 63.7677 310.131 52.3984 310.131 37.735C310.131 15.4932 327.665 0.663574 357.166 0.663574C385.839 0.663574 403.375 16.1506 403.375 39.7108H375.027C373.714 28.6739 367.322 23.5645 355.195 23.5645C345.033 23.5645 338.809 28.3434 338.809 34.2745C338.809 43.1731 347.988 44.9845 366.507 51.0818C380.105 55.5284 389.942 58.6583 395.674 63.2728C403.375 69.5326 407.309 78.1006 407.309 88.3176C407.309 111.381 389.119 125.721 356.013 125.721C325.373 125.721 309.473 111.713 307.673 83.0457H336.679Z" fill="white"/>
<path fill-rule="evenodd" clip-rule="evenodd" d="M401.876 6.03334H397.945V3.66125H408.512V6.03334H404.604V16.988H401.876V6.03334Z" fill="white"/>
<path fill-rule="evenodd" clip-rule="evenodd" d="M401.876 6.03334H397.945V3.66125H408.512V6.03334H404.604V16.988H401.876V6.03334Z" fill="white"/>
<path fill-rule="evenodd" clip-rule="evenodd" d="M410.263 3.66125H414.301L416.936 13.7997L419.531 3.66125H423.591V16.9899H421.028V6.23786L418.336 16.9899H415.55L412.826 6.23786V16.9899H410.263V3.66125Z" fill="white"/>
<path fill-rule="evenodd" clip-rule="evenodd" d="M410.263 3.66125H414.301L416.936 13.7997L419.531 3.66125H423.591V16.9899H421.028V6.23786L418.336 16.9899H415.55L412.826 6.23786V16.9899H410.263V3.66125Z" fill="white"/>
</svg>
